<?xml version="1.0" encoding="UTF-8" standalone="no"?>
<!DOCTYPE svg PUBLIC "-//W3C//DTD SVG 1.1//EN" "http://www.w3.org/Graphics/SVG/1.1/DTD/svg11.dtd">
<svg width="100%" height="100%" viewBox="0 0 258 214" version="1.1" xmlns="http://www.w3.org/2000/svg" xmlns:xlink="http://www.w3.org/1999/xlink" xml:space="preserve" xmlns:serif="http://www.serif.com/" style="fill-rule:evenodd;clip-rule:evenodd;stroke-linecap:round;stroke-linejoin:round;stroke-miterlimit:1.5;">
    <g transform="matrix(1,0,0,1,-617.176,0)">
        <g id="Logo" transform="matrix(1.1534,0,0,0.970684,-1073.03,0)">
            <rect x="1465.41" y="0" width="222.865" height="220.276" style="fill:none;"/>
            <g id="Logo--filled-" serif:id="Logo (filled)" transform="matrix(0.867002,0,0,1.0302,981.137,-547.377)">
                <g transform="matrix(0.946718,0,0,0.895556,-0.661616,68.3304)">
                    <path d="M715.08,529.796L715.165,542.191L730.615,541.946L730.062,529.809C745.499,530.55 759.312,534.191 771.747,540.293C804.945,531.204 830.7,532.691 832.635,535.123C836.089,539.464 843.765,561.961 824.705,589.951C835.228,610.434 834.525,669.786 833.957,670.549C838.066,672.945 848.538,680.315 851.536,687.581C858.66,704.847 852.793,728.038 836.241,739.149C834.906,740.045 804.775,737.287 804.775,737.287C804.775,737.287 778.98,749.523 761.221,738.039C759.27,736.777 761.221,732.807 761.221,732.807C741.936,735.871 721.753,736.503 704.871,733.569C704.871,733.569 708.144,738.91 702.34,740.477C697.644,741.745 658.833,742.819 657.367,733.129C657.212,732.106 607.731,732.352 607.077,731.23C601.934,722.411 596.315,709.613 599.181,693.656C601.68,679.744 631.776,664.005 631.776,664.005C625.557,647.455 629.966,608.52 637.427,589.291C622.323,572.6 613.8,554.648 617.043,540.667C618.42,534.731 654.992,529.053 678.463,542.53C689.623,534.166 702.025,530.695 715.08,529.796Z" style="fill:rgb(0,11,90);stroke:rgb(0,11,90);stroke-width:5.97px;"/>
                </g>
                <g transform="matrix(0.946718,0,0,0.895556,-0.661616,68.3304)">
                    <path d="M715.08,529.796L715.165,542.191L730.615,541.946L730.062,529.809C745.499,530.55 759.312,534.191 771.747,540.293C804.945,531.204 830.7,532.691 832.635,535.123C836.089,539.464 843.765,561.961 824.705,589.951C837.968,653.155 829.209,723.345 804.775,737.287C804.775,737.287 778.98,749.523 761.221,738.039C759.27,736.777 763.01,710.808 763.01,710.808C744.946,716.205 717.585,717.212 699.373,711.737C699.373,711.737 708.144,738.91 702.34,740.477C697.644,741.745 667.46,744.594 658.705,738.083C638.544,723.089 632.973,694.159 629.289,663.852C627.607,650.012 629.966,608.52 637.427,589.291C622.323,572.6 613.8,554.648 617.043,540.667C618.42,534.731 654.992,529.053 678.463,542.53C689.623,534.166 702.025,530.695 715.08,529.796Z" style="fill:white;stroke:rgb(0,11,90);stroke-width:5.97px;"/>
                </g>
                <g transform="matrix(1.4923,0,0,1.39686,-113.183,-238.487)">
                    <path d="M527.182,620.299C539.895,620.213 554.46,629.89 554.46,639.68C554.46,649.47 543.771,654.929 529.123,654.929C514.474,654.929 501.513,648.127 501.513,638.336C501.513,628.546 514.349,620.386 527.182,620.299Z" style="fill:white;stroke:rgb(0,11,90);stroke-width:3.81px;"/>
                </g>
                <g transform="matrix(1.50913,0.185298,-0.140445,1.14383,28.0377,-147.248)">
                    <ellipse cx="476.16" cy="620.791" rx="1.8" ry="7.195" style="fill:rgb(0,11,90);stroke:rgb(0,11,90);stroke-width:4.08px;"/>
                </g>
                <g transform="matrix(1.50913,-0.185298,0.140445,1.14383,-121.436,29.2342)">
                    <ellipse cx="476.16" cy="620.791" rx="1.8" ry="7.195" style="fill:rgb(0,11,90);stroke:rgb(0,11,90);stroke-width:4.08px;"/>
                </g>
                <g>
                    <g transform="matrix(1.01482,-0.585908,0.557835,0.966198,-227.292,356.776)">
                        <ellipse cx="528.749" cy="585.076" rx="16.736" ry="7.92" style="fill:rgb(0,11,90);stroke:rgb(0,11,90);stroke-width:4.81px;"/>
                    </g>
                    <g transform="matrix(1.61027,-0.905464,1.61011,2.86341,-1089.92,-653.873)">
                        <ellipse cx="482.846" cy="592.082" rx="4.552" ry="1.656" style="fill:white;"/>
                    </g>
                    <g transform="matrix(1.03105,-0.579762,0.895834,1.59314,-395.899,-43.5955)">
                        <ellipse cx="482.846" cy="592.082" rx="4.552" ry="1.656" style="fill:white;"/>
                    </g>
                    <g transform="matrix(0.577495,-0.324729,0.678221,1.20614,-56.9272,59.9145)">
                        <ellipse cx="482.846" cy="592.082" rx="4.552" ry="1.656" style="fill:white;"/>
                    </g>
                </g>
                <g transform="matrix(-1,0,0,1,1352.54,0)">
                    <g transform="matrix(1.01482,-0.585908,0.557835,0.966198,-227.292,356.776)">
                        <ellipse cx="528.749" cy="585.076" rx="16.736" ry="7.92" style="fill:rgb(0,11,90);stroke:rgb(0,11,90);stroke-width:4.81px;"/>
                    </g>
                    <g transform="matrix(1.61027,-0.905464,1.61011,2.86341,-1089.92,-653.873)">
                        <ellipse cx="482.846" cy="592.082" rx="4.552" ry="1.656" style="fill:white;"/>
                    </g>
                    <g transform="matrix(1.03105,-0.579762,0.895834,1.59314,-395.899,-43.5955)">
                        <ellipse cx="482.846" cy="592.082" rx="4.552" ry="1.656" style="fill:white;"/>
                    </g>
                    <g transform="matrix(0.577495,-0.324729,0.678221,1.20614,-56.9272,59.9145)">
                        <ellipse cx="482.846" cy="592.082" rx="4.552" ry="1.656" style="fill:white;"/>
                    </g>
                </g>
                <g transform="matrix(1,0,0,1.03397,201.505,21.7173)">
                    <path d="M488.113,661.539C536.079,660.109 541.436,634.253 544.126,640.917C544.126,640.917 542.005,666.264 488.02,666.718C432.485,667.185 421.6,641.966 421.6,641.966C419.367,635.692 440.62,662.956 488.113,661.539Z" style="fill:rgb(0,11,90);"/>
                </g>
                <g transform="matrix(0.428956,-0.903325,0.903325,0.428956,-148.978,820.302)">
                    <path d="M552.887,555.83C562.811,563.552 570.305,588.972 569.329,601.743C562.221,592.003 555.89,563.175 552.166,564.119C542.547,566.557 542.718,581.714 538.288,580.291C538.89,567.988 541.566,561.571 552.887,555.83Z" style="fill:rgb(0,11,90);"/>
                </g>
                <g transform="matrix(-0.428956,-0.903325,-0.903325,0.428956,1523.25,820.302)">
                    <path d="M556.223,557.297C562.878,567.594 567.489,583.648 572.164,604.019C564.454,596.064 556.876,565.12 553.034,565.134C546.491,565.158 536.776,574.862 532.109,578.105C540.519,564.82 546.457,560.008 556.223,557.297Z" style="fill:rgb(0,11,90);"/>
                </g>
            </g>
        </g>
    </g>
</svg>
