<?xml version="1.0" encoding="UTF-8" standalone="no"?><!DOCTYPE svg PUBLIC "-//W3C//DTD SVG 1.1//EN" "http://www.w3.org/Graphics/SVG/1.1/DTD/svg11.dtd"><svg width="100%" height="100%" viewBox="0 0 1602 1443" version="1.1" xmlns="http://www.w3.org/2000/svg" xmlns:xlink="http://www.w3.org/1999/xlink" xml:space="preserve" xmlns:serif="http://www.serif.com/" style="fill-rule:evenodd;clip-rule:evenodd;stroke-linecap:round;stroke-linejoin:round;stroke-miterlimit:1.5;"><rect id="Artboard5" x="0" y="0" width="1601.53" height="1442.16" style="fill:none;"/><g><g><path d="M1029.39,866.455c29.849,44.983 71.132,59.946 126.21,38.694c22.901,-26.838 45.406,-38.268 69.654,-40.47c114.253,-10.372 224.317,-54.776 207.991,-111.884c72.983,-42.925 119.035,-117.23 52.039,-114.946c96.239,-95.871 122.615,-195.416 16.155,-141.073c96.231,-165.571 83.335,-214.08 4.364,-191.71c10.654,-98.729 -19.847,-121.657 -76.848,-95.776c-0.701,-100.411 -60.945,-168.943 -62.152,-125.105c-0.794,28.845 39.812,103.743 -153.544,332.725c-138.244,125.069 -193.713,276.792 -183.869,449.545Z" style="fill:#fff;stroke:#000b5a;stroke-width:20.83px;"/><path d="M1299.15,794.616c28.877,-3.635 72.098,-15.231 137.994,-44.511c-49.355,22.195 -99.339,38.364 -137.994,44.511Z" style="fill:none;stroke:#000b5a;stroke-width:20.83px;"/><path d="M1368.14,704.271c52.597,-17.613 74.342,-33.035 126.708,-71.383c-56.299,41.255 -73.971,49.313 -126.708,71.383Z" style="fill:none;stroke:#000b5a;stroke-width:20.83px;"/><path d="M1420.42,575.958c42.372,-31.784 57.725,-51.617 94.378,-100.373c-39.398,52.44 -53.065,64.879 -94.378,100.373Z" style="fill:none;stroke:#000b5a;stroke-width:20.83px;"/><path d="M1437.14,446.63c33.821,-42.372 60.402,-90.11 68.244,-149.563c-8.664,61.254 -33.672,106.154 -68.244,149.563Z" style="fill:none;stroke:#000b5a;stroke-width:16.67px;"/><path d="M1384.42,341.986c25.08,-37.497 43.498,-80.773 44.871,-136.931c-1.913,57.807 -19.243,98.51 -44.871,136.931Z" style="fill:none;stroke:#000b5a;stroke-width:20.83px;"/><path d="M1326.29,341.986c-10.146,43.391 -100.746,116.053 -131.551,157.947c-83.402,113.425 -120.231,227.962 -138.804,394.392c22.931,-175.18 57.166,-301.974 142.954,-401.649c28.26,-32.833 117.846,-106.91 127.401,-150.69Z" style="fill:none;stroke:#000b5a;stroke-width:12.5px;"/></g><g><path d="M562.404,866.455c-29.848,44.983 -71.131,59.946 -126.209,38.694c-22.901,-26.838 -45.406,-38.268 -69.654,-40.47c-114.254,-10.372 -224.317,-54.776 -207.991,-111.884c-72.983,-42.925 -119.035,-117.23 -52.039,-114.946c-96.24,-95.871 -122.616,-195.416 -16.155,-141.073c-96.231,-165.571 -83.335,-214.08 -4.364,-191.71c-10.654,-98.729 19.847,-121.657 76.848,-95.776c0.701,-100.411 60.944,-168.943 62.152,-125.105c0.794,28.845 -39.812,103.743 153.544,332.725c138.244,125.069 193.713,276.792 183.868,449.545Z" style="fill:#fff;stroke:#000b5a;stroke-width:20.83px;"/><path d="M292.647,794.616c-28.877,-3.635 -72.098,-15.231 -137.994,-44.511c49.355,22.195 99.339,38.364 137.994,44.511Z" style="fill:none;stroke:#000b5a;stroke-width:20.83px;"/><path d="M223.65,704.271c-52.597,-17.613 -74.342,-33.035 -126.708,-71.383c56.299,41.255 73.971,49.313 126.708,71.383Z" style="fill:none;stroke:#000b5a;stroke-width:20.83px;"/><path d="M171.37,575.958c-42.372,-31.784 -57.726,-51.617 -94.378,-100.373c39.398,52.44 53.065,64.879 94.378,100.373Z" style="fill:none;stroke:#000b5a;stroke-width:20.83px;"/><path d="M154.653,446.63c-33.821,-42.372 -60.402,-90.11 -68.244,-149.563c8.664,61.254 33.672,106.154 68.244,149.563Z" style="fill:none;stroke:#000b5a;stroke-width:16.67px;"/><path d="M207.374,341.986c-25.079,-37.497 -43.498,-80.773 -44.871,-136.931c1.914,57.807 19.244,98.51 44.871,136.931Z" style="fill:none;stroke:#000b5a;stroke-width:20.83px;"/><path d="M265.508,341.986c10.145,43.391 100.746,116.053 131.551,157.947c83.402,113.425 120.231,227.962 138.804,394.392c-22.931,-175.18 -57.166,-301.974 -142.955,-401.649c-28.259,-32.833 -117.846,-106.91 -127.4,-150.69Z" style="fill:none;stroke:#000b5a;stroke-width:12.5px;"/></g><g id="Logo--filled-" serif:id="Logo (filled)"><path d="M762.633,518.386l-1.279,15.83l62.117,-1.377l-1.739,-14.406c60.894,2.766 115.382,16.353 164.435,39.123c130.953,-33.915 232.549,-28.369 240.181,-19.293c13.624,16.2 43.906,100.144 -31.281,204.591c13.702,221.013 24.766,241.281 23.506,273.685c-2.869,73.785 17.893,181.581 -40.067,203.097c-84.044,31.199 -67.591,12.344 -153.451,32.197c-8.792,2.033 -73.138,-20.079 -73.138,-20.079c-76.072,11.436 -168.013,14.73 -234.606,3.784c0,-0 -138.993,21.088 -161.887,26.935c-18.525,4.731 -62.971,-8.082 -138.371,-65.712c-32.195,-24.608 0.367,-119.194 2.719,-170.612c3.778,-82.628 17.047,-191.45 36.546,-285.76c-59.579,-62.283 -93.199,-129.269 -80.407,-181.439c5.431,-22.151 149.696,-43.339 242.284,6.951c44.021,-31.207 92.941,-44.163 144.438,-47.515Z" style="fill:#000b5a;stroke:#000b5a;stroke-width:22.92px;"/><path d="M762.633,518.386l0.335,46.252l60.947,-0.914l-2.183,-45.291c60.894,2.766 115.382,16.353 164.435,39.123c130.953,-33.915 232.549,-28.369 240.181,-19.293c13.624,16.2 43.906,100.144 -31.281,204.591c52.316,235.844 -47.242,519.938 -143.626,571.964c0,-0 -215.16,47.598 -221.557,0.49c-6.053,-44.571 32.156,-95.672 32.156,-95.672c-81.967,-3.573 -18.791,-1.752 -94.763,0c-0,0 32.515,73.571 28.57,95.672c-6.113,34.25 -197.473,16.846 -233.615,-15.675c-71.81,-64.617 -123.482,-167.93 -138.013,-281.02c-6.636,-51.643 2.671,-206.472 32.099,-278.224c-59.579,-62.283 -93.199,-129.269 -80.407,-181.439c5.431,-22.151 149.696,-43.339 242.284,6.951c44.021,-31.207 92.941,-44.163 144.438,-47.515Z" style="fill:#fff;stroke:#000b5a;stroke-width:22.92px;"/><path d="M800.599,878.825c79.002,-2.864 171.207,50.731 172.908,107.687c1.702,56.956 -63.784,90.698 -154.825,93.417c-91.041,2.72 -172.78,-34.447 -174.482,-91.403c-1.701,-56.956 76.656,-106.811 156.399,-109.701Z" style="fill:#fff;stroke:#000b5a;stroke-width:22.92px;"/><path d="M747.976,942.291c6.267,0.58 9.929,16.465 8.172,35.451c-1.758,18.985 -8.273,33.928 -14.541,33.348c-6.268,-0.58 -9.929,-16.465 -8.172,-35.451c1.758,-18.985 8.273,-33.928 14.541,-33.348Z" style="fill:#000b5a;stroke:#000b5a;stroke-width:22.92px;"/><path d="M843.264,939.525c6.222,-0.953 13.618,13.574 16.506,32.421c2.887,18.847 0.18,34.922 -6.041,35.875c-6.222,0.953 -13.618,-13.574 -16.506,-32.421c-2.888,-18.846 -0.181,-34.921 6.041,-35.875Z" style="fill:#000b5a;stroke:#000b5a;stroke-width:22.92px;"/><g><path d="M625.764,776.023c39.058,-22.551 79.018,-26.571 89.178,-8.973c10.16,17.598 -13.301,50.194 -52.36,72.745c-39.058,22.55 -79.018,26.57 -89.178,8.972c-10.16,-17.598 13.301,-50.194 52.36,-72.744Z" style="fill:#000b5a;stroke:#000b5a;stroke-width:22.92px;"/><path d="M654.901,754.898c16.856,-9.478 35.52,-8.317 41.653,2.59c6.134,10.908 -2.572,27.458 -19.427,36.936c-16.856,9.478 -35.52,8.318 -41.653,-2.59c-6.134,-10.907 2.571,-27.458 19.427,-36.936Z" style="fill:#fff;"/><path d="M624.127,828.007c10.792,-6.068 22.325,-6.068 25.737,0c3.413,6.069 -2.579,15.923 -13.371,21.992c-10.793,6.069 -22.326,6.069 -25.738,-0c-3.413,-6.069 2.579,-15.923 13.372,-21.992Z" style="fill:#fff;"/><path d="M588.681,820.324c6.045,-3.399 13.051,-2.428 15.634,2.166c2.584,4.595 -0.227,11.085 -6.272,14.484c-6.045,3.399 -13.05,2.428 -15.633,-2.166c-2.584,-4.595 0.226,-11.084 6.271,-14.484Z" style="fill:#fff;"/></g><g><path d="M970.327,776.023c-39.059,-22.551 -79.018,-26.571 -89.179,-8.973c-10.16,17.598 13.301,50.194 52.36,72.745c39.058,22.55 79.018,26.57 89.178,8.972c10.161,-17.598 -13.301,-50.194 -52.359,-72.744Z" style="fill:#000b5a;stroke:#000b5a;stroke-width:22.92px;"/><path d="M941.189,754.898c-16.856,-9.478 -35.52,-8.317 -41.653,2.59c-6.133,10.908 2.572,27.458 19.427,36.936c16.856,9.478 35.52,8.318 41.654,-2.59c6.133,-10.907 -2.572,-27.458 -19.428,-36.936Z" style="fill:#fff;"/><path d="M971.964,828.007c-10.793,-6.068 -22.326,-6.068 -25.738,0c-3.413,6.069 2.579,15.923 13.372,21.992c10.792,6.069 22.325,6.069 25.737,-0c3.413,-6.069 -2.579,-15.923 -13.371,-21.992Z" style="fill:#fff;"/><path d="M1007.41,820.324c-6.045,-3.399 -13.051,-2.428 -15.634,2.166c-2.584,4.595 0.227,11.085 6.272,14.484c6.045,3.399 13.05,2.428 15.633,-2.166c2.584,-4.595 -0.226,-11.084 -6.271,-14.484Z" style="fill:#fff;"/></g><path d="M818.054,1197.3c199.856,-6.164 222.177,-117.553 233.387,-88.844c0,0 -8.837,109.201 -233.776,111.156c-231.397,2.01 -276.75,-106.637 -276.75,-106.637c-9.302,-27.03 79.25,90.428 277.139,84.325Z" style="fill:#000b5a;"/><path d="M404.151,587.131c46.803,-23.55 155.876,-6.323 202.196,20.179c-49.364,9.344 -169.183,-18.354 -172.286,-2.65c-8.015,40.563 49.339,67.011 36.068,81.14c-45.232,-24.252 -64.601,-45.796 -65.978,-98.669Z" style="fill:#000b5a;"/><path d="M1199.77,577.198c-50.649,-6.645 -119.313,4.694 -204.344,23.509c43.724,14.801 173.735,-11.984 180.548,2.501c11.606,24.672 -7.555,78.58 -11.421,101.941c34.97,-55.398 42.47,-86.348 35.217,-127.951Z" style="fill:#000b5a;"/></g><path d="M829.884,1232.9c-0,-4.666 -3.788,-8.453 -8.453,-8.453l-16.906,-0c-4.666,-0 -8.453,3.787 -8.453,8.453l-0,164.815c-0,4.665 3.787,8.453 8.453,8.453l16.906,0c4.665,0 8.453,-3.788 8.453,-8.453l-0,-164.815Z" style="fill:#c7b964;"/><clipPath id="_clip1"><path d="M829.884,1232.9c-0,-4.666 -3.788,-8.453 -8.453,-8.453l-16.906,-0c-4.666,-0 -8.453,3.787 -8.453,8.453l-0,164.815c-0,4.665 3.787,8.453 8.453,8.453l16.906,0c4.665,0 8.453,-3.788 8.453,-8.453l-0,-164.815Z"/></clipPath><g clip-path="url(#_clip1)"><g transform="matrix(0.00168544,-0.999999,0.999999,0.00167664,-5576.35,3967.24)"><text x="2573.63px" y="6401.88px" style="font-family:'HiraginoSans-W4', 'Hiragino Sans', sans-serif;font-size:44.175px;fill:#b5a751;fill-opacity:0.4;">l<tspan x="2589.52px 2605.41px 2621.31px 2637.2px 2653.09px 2668.98px 2684.87px 2700.76px 2716.66px 2732.55px " y="6401.88px 6401.88px 6401.88px 6401.88px 6401.88px 6401.88px 6401.88px 6401.88px 6401.88px 6401.88px ">llllllllll</tspan></text></g></g></g></svg>