<?xml version="1.0" encoding="UTF-8" standalone="no"?><!DOCTYPE svg PUBLIC "-//W3C//DTD SVG 1.1//EN" "http://www.w3.org/Graphics/SVG/1.1/DTD/svg11.dtd"><svg width="100%" height="100%" viewBox="0 0 1975 1240" version="1.1" xmlns="http://www.w3.org/2000/svg" xmlns:xlink="http://www.w3.org/1999/xlink" xml:space="preserve" xmlns:serif="http://www.serif.com/" style="fill-rule:evenodd;clip-rule:evenodd;stroke-linecap:round;stroke-linejoin:round;stroke-miterlimit:1.5;"><rect id="Artboard5" x="0" y="0" width="1974.1" height="1239.44" style="fill:none;"/><g><g><path d="M1240.42,646.848c9.398,53.16 41.268,83.367 100.251,85.883c31.714,-15.458 56.911,-16.948 80.02,-9.281c108.887,36.125 227.526,39.377 235.368,-19.499c84.054,-10.202 155.951,-59.928 93.619,-84.594c126.522,-49.452 190.462,-130.178 71.157,-122.879c154.353,-113.355 161.905,-162.977 80.572,-174.011c49.201,-86.256 30.396,-119.459 -32.198,-118.499c39.462,-92.334 11.606,-179.224 -7.011,-139.517c-12.249,26.127 -4.938,111.01 -273.659,243.706c-176.692,59.443 -288.144,176.384 -348.119,338.691Z" style="fill:#fff;stroke:#000b5a;stroke-width:20.83px;"/><path d="M1437.32,682.203c43.148,12.824 111.631,22.847 223.395,20.839c-83.878,1.898 -164.825,-5.581 -223.395,-20.839Z" style="fill:none;stroke:#000b5a;stroke-width:20.83px;"/><path d="M1539.56,638.81c84.544,7.558 124.445,-0.61 221.267,-21.958c-104.111,22.989 -133.818,23.419 -221.267,21.958Z" style="fill:none;stroke:#000b5a;stroke-width:20.83px;"/><path d="M1636.2,567.418c83.511,-19.314 119.211,-38.124 205.357,-85.03c-92.62,50.465 -120.987,59.801 -205.357,85.03Z" style="fill:none;stroke:#000b5a;stroke-width:20.83px;"/><path d="M1711.47,465.968c74.077,-33.887 141.501,-77.666 190.318,-144.47c-51.109,68.544 -114.536,109.717 -190.318,144.47Z" style="fill:none;stroke:#000b5a;stroke-width:16.67px;"/><path d="M1737.34,341.048c52.86,-32.04 100.536,-74.387 133.872,-140.828c-34.948,68.137 -79.798,107.962 -133.872,140.828Z" style="fill:none;stroke:#000b5a;stroke-width:20.83px;"/><path d="M1568.11,364.356c-122.511,41.221 -230.701,137.628 -314.489,318.643c88.561,-183.383 190.248,-274.758 314.489,-318.643Z" style="fill:none;stroke:#000b5a;stroke-width:12.5px;"/></g><g><path d="M729.235,621.785c-9.398,53.16 -41.269,83.367 -100.251,85.883c-31.715,-15.458 -56.911,-16.948 -80.021,-9.281c-108.887,36.125 -227.525,39.377 -235.368,-19.499c-84.053,-10.202 -155.951,-59.928 -93.618,-84.594c-126.522,-49.452 -190.463,-130.178 -71.157,-122.879c-154.353,-113.355 -161.906,-162.977 -80.573,-174.012c-49.2,-86.255 -30.395,-119.458 32.199,-118.498c-39.463,-92.334 -11.606,-179.224 7.01,-139.517c12.25,26.127 4.938,111.01 273.659,243.706c176.693,59.443 288.145,176.384 348.12,338.691Z" style="fill:#fff;stroke:#000b5a;stroke-width:20.83px;"/><path d="M532.343,657.14c-43.149,12.824 -111.631,22.847 -223.395,20.839c83.877,1.898 164.824,-5.581 223.395,-20.839Z" style="fill:none;stroke:#000b5a;stroke-width:20.83px;"/><path d="M430.099,613.747c-84.544,7.558 -124.445,-0.61 -221.268,-21.958c104.112,22.989 133.818,23.419 221.268,21.958Z" style="fill:none;stroke:#000b5a;stroke-width:20.83px;"/><path d="M333.461,542.355c-83.51,-19.314 -119.211,-38.124 -205.357,-85.03c92.621,50.465 120.988,59.801 205.357,85.03Z" style="fill:none;stroke:#000b5a;stroke-width:20.83px;"/><path d="M258.189,440.905c-74.078,-33.887 -141.501,-77.666 -190.318,-144.47c51.109,68.544 114.535,109.717 190.318,144.47Z" style="fill:none;stroke:#000b5a;stroke-width:16.67px;"/><path d="M232.317,315.985c-52.86,-32.04 -100.535,-74.387 -133.871,-140.828c34.948,68.137 79.798,107.962 133.871,140.828Z" style="fill:none;stroke:#000b5a;stroke-width:20.83px;"/><path d="M401.545,339.293c122.511,41.221 230.701,137.628 314.489,318.643c-88.561,-183.383 -190.249,-274.758 -314.489,-318.643Z" style="fill:none;stroke:#000b5a;stroke-width:12.5px;"/></g><g id="Logo--filled-" serif:id="Logo (filled)"><path d="M951.614,315.659l-1.279,15.831l62.118,-1.377l-1.74,-14.406c60.894,2.765 115.382,16.353 164.436,39.123c130.952,-33.916 232.549,-28.369 240.181,-19.294c13.623,16.201 43.905,100.145 -31.282,204.591c13.702,221.014 24.767,241.282 23.507,273.685c-2.87,73.786 17.893,181.582 -40.067,203.098c-84.045,31.199 -67.591,12.343 -153.451,32.197c-8.793,2.033 -73.138,-20.079 -73.138,-20.079c-76.072,11.436 -168.013,14.729 -234.606,3.783c-0,0 -138.993,21.088 -161.888,26.936c-18.525,4.731 -62.971,-8.082 -138.37,-65.712c-32.196,-24.608 0.367,-119.195 2.718,-170.612c3.779,-82.628 17.048,-191.451 36.547,-285.761c-59.579,-62.282 -93.2,-129.269 -80.408,-181.438c5.432,-22.151 149.696,-43.339 242.284,6.951c44.021,-31.208 92.941,-44.163 144.438,-47.516Z" style="fill:#000b5a;stroke:#000b5a;stroke-width:22.92px;"/><path d="M951.614,315.659l0.335,46.253l60.948,-0.914l-2.184,-45.291c60.894,2.765 115.382,16.353 164.436,39.123c130.952,-33.916 232.549,-28.369 240.181,-19.294c13.623,16.201 43.905,100.145 -31.282,204.591c52.317,235.845 -47.242,519.939 -143.625,571.964c-0,0 -215.16,47.598 -221.558,0.491c-6.053,-44.571 32.156,-95.672 32.156,-95.672c-81.966,-3.574 -18.791,-1.752 -94.763,-0c0,-0 32.516,73.57 28.571,95.672c-6.113,34.25 -197.473,16.846 -233.615,-15.676c-71.81,-64.616 -123.483,-167.929 -138.014,-281.019c-6.636,-51.643 2.672,-206.472 32.1,-278.225c-59.579,-62.282 -93.2,-129.269 -80.408,-181.438c5.432,-22.151 149.696,-43.339 242.284,6.951c44.021,-31.208 92.941,-44.163 144.438,-47.516Z" style="fill:#fff;stroke:#000b5a;stroke-width:22.92px;"/><path d="M989.58,676.098c79.002,-2.863 171.207,50.732 172.909,107.688c1.701,56.955 -63.784,90.697 -154.826,93.417c-91.041,2.72 -172.78,-34.447 -174.481,-91.403c-1.702,-56.956 76.655,-106.811 156.398,-109.702Z" style="fill:#fff;stroke:#000b5a;stroke-width:22.92px;"/><path d="M936.957,739.565c6.268,0.58 9.93,16.465 8.172,35.45c-1.757,18.986 -8.273,33.929 -14.541,33.348c-6.267,-0.58 -9.929,-16.465 -8.172,-35.45c1.758,-18.986 8.273,-33.928 14.541,-33.348Z" style="fill:#000b5a;stroke:#000b5a;stroke-width:22.92px;"/><path d="M1032.25,736.799c6.222,-0.953 13.617,13.574 16.505,32.421c2.888,18.846 0.181,34.921 -6.041,35.875c-6.222,0.953 -13.618,-13.574 -16.505,-32.421c-2.888,-18.847 -0.181,-34.922 6.041,-35.875Z" style="fill:#000b5a;stroke:#000b5a;stroke-width:22.92px;"/><g><path d="M814.745,573.296c39.058,-22.55 79.018,-26.571 89.178,-8.972c10.161,17.598 -13.301,50.194 -52.359,72.744c-39.059,22.551 -79.018,26.571 -89.179,8.973c-10.16,-17.599 13.302,-50.194 52.36,-72.745Z" style="fill:#000b5a;stroke:#000b5a;stroke-width:22.92px;"/><path d="M843.883,552.172c16.855,-9.478 35.519,-8.318 41.653,2.59c6.133,10.907 -2.572,27.458 -19.428,36.936c-16.856,9.478 -35.52,8.317 -41.653,-2.59c-6.133,-10.908 2.572,-27.458 19.428,-36.936Z" style="fill:#fff;"/><path d="M813.108,625.281c10.793,-6.069 22.325,-6.069 25.738,0c3.412,6.069 -2.579,15.923 -13.372,21.992c-10.793,6.068 -22.325,6.068 -25.738,-0c-3.412,-6.069 2.579,-15.923 13.372,-21.992Z" style="fill:#fff;"/><path d="M777.663,617.598c6.045,-3.399 13.05,-2.429 15.634,2.166c2.583,4.594 -0.227,11.084 -6.272,14.483c-6.045,3.4 -13.05,2.429 -15.634,-2.165c-2.583,-4.595 0.227,-11.085 6.272,-14.484Z" style="fill:#fff;"/></g><g><path d="M1159.31,573.296c-39.058,-22.55 -79.018,-26.571 -89.178,-8.972c-10.161,17.598 13.301,50.194 52.359,72.744c39.059,22.551 79.018,26.571 89.179,8.973c10.16,-17.599 -13.301,-50.194 -52.36,-72.745Z" style="fill:#000b5a;stroke:#000b5a;stroke-width:22.92px;"/><path d="M1130.17,552.172c-16.855,-9.478 -35.519,-8.318 -41.653,2.59c-6.133,10.907 2.572,27.458 19.428,36.936c16.856,9.478 35.52,8.317 41.653,-2.59c6.133,-10.908 -2.572,-27.458 -19.428,-36.936Z" style="fill:#fff;"/><path d="M1160.94,625.281c-10.793,-6.069 -22.325,-6.069 -25.738,0c-3.412,6.069 2.579,15.923 13.372,21.992c10.793,6.068 22.325,6.068 25.738,-0c3.412,-6.069 -2.579,-15.923 -13.372,-21.992Z" style="fill:#fff;"/><path d="M1196.39,617.598c-6.045,-3.399 -13.05,-2.429 -15.634,2.166c-2.583,4.594 0.227,11.084 6.272,14.483c6.045,3.4 13.05,2.429 15.634,-2.165c2.583,-4.595 -0.227,-11.085 -6.272,-14.484Z" style="fill:#fff;"/></g><path d="M1007.03,994.571c199.857,-6.164 222.177,-117.554 233.388,-88.844c-0,0 -8.838,109.201 -233.776,111.155c-231.397,2.011 -276.75,-106.637 -276.75,-106.637c-9.302,-27.029 79.249,90.429 277.138,84.326Z" style="fill:#000b5a;"/><path d="M593.133,384.405c46.802,-23.55 155.875,-6.323 202.195,20.178c-49.363,9.345 -169.182,-18.353 -172.285,-2.65c-8.015,40.563 49.338,67.012 36.067,81.141c-45.231,-24.252 -64.6,-45.796 -65.977,-98.669Z" style="fill:#000b5a;"/><path d="M1388.75,374.472c-50.65,-6.646 -119.314,4.694 -204.345,23.509c43.724,14.801 173.735,-11.984 180.549,2.5c11.606,24.673 -7.556,78.58 -11.421,101.941c34.97,-55.397 42.47,-86.348 35.217,-127.95Z" style="fill:#000b5a;"/></g><path d="M1018.87,1030.17c0,-4.665 -3.787,-8.453 -8.453,-8.453l-16.906,0c-4.665,0 -8.453,3.788 -8.453,8.453l-0,164.816c-0,4.665 3.788,8.453 8.453,8.453l16.906,-0c4.666,-0 8.453,-3.788 8.453,-8.453l0,-164.816Z" style="fill:#c7b964;"/><clipPath id="_clip1"><path d="M1018.87,1030.17c0,-4.665 -3.787,-8.453 -8.453,-8.453l-16.906,0c-4.665,0 -8.453,3.788 -8.453,8.453l-0,164.816c-0,4.665 3.788,8.453 8.453,8.453l16.906,-0c4.666,-0 8.453,-3.788 8.453,-8.453l0,-164.816Z"/></clipPath><g clip-path="url(#_clip1)"><g transform="matrix(0.00168544,-0.999999,0.999999,0.00167664,-5184.96,3953.84)"><text x="2762.61px" y="6199.16px" style="font-family:'HiraginoSans-W4', 'Hiragino Sans', sans-serif;font-size:44.175px;fill:#b5a751;fill-opacity:0.4;">l<tspan x="2778.5px 2794.4px 2810.29px 2826.18px 2842.07px 2857.96px 2873.86px 2889.75px 2905.64px 2921.53px " y="6199.16px 6199.16px 6199.16px 6199.16px 6199.16px 6199.16px 6199.16px 6199.16px 6199.16px 6199.16px ">llllllllll</tspan></text></g></g></g></svg>