<?xml version="1.0" encoding="UTF-8" standalone="no"?><!DOCTYPE svg PUBLIC "-//W3C//DTD SVG 1.1//EN" "http://www.w3.org/Graphics/SVG/1.1/DTD/svg11.dtd"><svg width="100%" height="100%" viewBox="0 0 2067 2067" version="1.1" xmlns="http://www.w3.org/2000/svg" xmlns:xlink="http://www.w3.org/1999/xlink" xml:space="preserve" xmlns:serif="http://www.serif.com/" style="fill-rule:evenodd;clip-rule:evenodd;stroke-linejoin:round;stroke-miterlimit:2;"><rect id="Login" x="0" y="0" width="2065.97" height="2065.97" style="fill:none;"/><circle cx="1032.99" cy="1032.99" r="1032.99" style="fill:none;"/><g><path d="M172.575,1159.72l0,-253.471l759.138,0l-0,-235.367l362.099,362.105l-362.1,362.1l0,-235.367l-759.137,-0Z" style="fill:#000c5a;"/><path d="M172.575,785.721c107.121,-368.513 447.504,-638.15 850.367,-638.15c488.675,-0 885.416,396.741 885.416,885.417c0,488.675 -396.741,885.416 -885.416,885.416c-402.863,0 -743.246,-269.641 -850.367,-638.154l267.767,0c96.391,226.538 321.075,385.521 582.6,385.521c349.258,-0 632.812,-283.542 632.812,-632.784c0,-349.245 -283.554,-632.787 -632.812,-632.787c-261.525,-0 -486.209,158.983 -582.6,385.521l-267.767,-0Z" style="fill:#000c5a;"/></g></svg>