<?xml version="1.0" encoding="UTF-8" standalone="no"?><!DOCTYPE svg PUBLIC "-//W3C//DTD SVG 1.1//EN" "http://www.w3.org/Graphics/SVG/1.1/DTD/svg11.dtd"><svg width="100%" height="100%" viewBox="0 0 2067 2067" version="1.1" xmlns="http://www.w3.org/2000/svg" xmlns:xlink="http://www.w3.org/1999/xlink" xml:space="preserve" xmlns:serif="http://www.serif.com/" style="fill-rule:evenodd;clip-rule:evenodd;stroke-linejoin:round;stroke-miterlimit:2;"><rect id="Logout" x="0" y="0" width="2065.97" height="2065.97" style="fill:none;"/><g><ellipse cx="1040.47" cy="1040.8" rx="1040.47" ry="1040.8" style="fill:none;"/><g><path d="M1260.24,1167.53l-0.001,-253.47l-691.987,-0l-0,-235.367l-362.1,362.104l362.1,362.1l-0,-235.367l691.987,0Z" style="fill:#000c5a;"/><path d="M206.15,627.733c148.538,-280.825 443.688,-472.35 783.217,-472.35c488.675,0 885.416,396.742 885.416,885.417c0,488.675 -396.741,885.417 -885.416,885.417c-339.525,-0 -634.675,-191.521 -783.209,-472.354l303.975,-0c116.084,134.525 287.788,219.72 479.234,219.72c349.258,0 632.812,-283.541 632.812,-632.783c0,-349.246 -283.554,-632.788 -632.812,-632.788c-191.454,0 -363.167,85.205 -479.238,219.721l-303.979,0Z" style="fill:#000c5a;"/></g></g></svg>