<?xml version="1.0" encoding="UTF-8" standalone="no"?><!DOCTYPE svg PUBLIC "-//W3C//DTD SVG 1.1//EN" "http://www.w3.org/Graphics/SVG/1.1/DTD/svg11.dtd"><svg width="100%" height="100%" viewBox="0 0 2067 2067" version="1.1" xmlns="http://www.w3.org/2000/svg" xmlns:xlink="http://www.w3.org/1999/xlink" xml:space="preserve" xmlns:serif="http://www.serif.com/" style="fill-rule:evenodd;clip-rule:evenodd;stroke-linejoin:round;stroke-miterlimit:2;"><rect id="Settings" x="0" y="0" width="2065.97" height="2065.97" style="fill:none;"/><g><g><ellipse cx="1040.47" cy="1040.8" rx="1040.47" ry="1040.8" style="fill:none;"/><path d="M1237.49,188.679c-129.684,-29.596 -264.367,-29.596 -394.05,0l-0,329.8c-33.8,12.483 -66.342,28.154 -97.175,46.8l-257.85,-205.629c-103.996,82.938 -187.971,188.238 -245.684,308.079l257.846,205.629c-11.312,34.209 -19.35,69.421 -24,105.154l-321.529,73.388c-0,133.017 29.971,264.321 87.683,384.167l321.529,-73.388c19.696,30.175 42.213,58.413 67.25,84.329l-143.095,297.138c104,82.933 225.346,141.371 355.025,170.971l143.096,-297.138c35.87,3.417 71.987,3.417 107.858,0l143.096,297.138c129.679,-29.6 251.025,-88.038 355.025,-170.971l-143.096,-297.138c25.037,-25.916 47.554,-54.154 67.25,-84.329l321.529,73.388c57.713,-119.846 87.683,-251.15 87.683,-384.167l-321.529,-73.387c-4.65,-35.734 -12.687,-70.946 -24,-105.155l257.846,-205.629c-57.713,-119.842 -141.688,-225.142 -245.683,-308.079l-257.85,205.629c-30.834,-18.646 -63.375,-34.317 -97.175,-46.8l-0,-329.8Zm-197.025,686.138c97.733,-0 177.083,79.345 177.083,177.083c0,97.733 -79.35,177.083 -177.083,177.083c-97.734,0 -177.084,-79.35 -177.084,-177.083c0,-97.738 79.35,-177.083 177.084,-177.083Z" style="fill:#000c5a;"/></g></g></svg>